<?xml version="1.0" encoding="utf-8"?>
<!-- Generator: Adobe Illustrator 28.0.0, SVG Export Plug-In . SVG Version: 6.00 Build 0)  -->
<svg version="1.1" id="Layer_1" xmlns="http://www.w3.org/2000/svg" xmlns:xlink="http://www.w3.org/1999/xlink" x="0px" y="0px"
	 viewBox="0 0 525.71 297.52" style="enable-background:new 0 0 525.71 297.52;" xml:space="preserve">
<style type="text/css">
	.st0{fill-rule:evenodd;clip-rule:evenodd;fill:#D10016;}
	.st1{fill-rule:evenodd;clip-rule:evenodd;}
</style>
<g>
	<path class="st0" d="M263.36,0c-16.98,13.36-37.4,12.68-45.23,27.5c-8.61,16.31,0.34,44.79,5.6,60.58
		c7.61,22.87,20.46,45.65,39.63,44.63c19.17,1.02,32.02-21.76,39.63-44.63c5.26-15.79,14.21-44.27,5.6-60.58
		C300.76,12.68,280.34,13.36,263.36,0z"/>
	<path class="st0" d="M199.09,21.4c-8.29,21.92-23.26,18.1-20.32,40.64c4.62,35.33,31.23,58,64.07,68.38
		c-17.11-19.62-23.65-40.61-28.97-64.79c-3.54-16.1,1.66-24.98-9.84-37.26C201.91,26.09,199.99,23.77,199.09,21.4z"/>
	<path class="st0" d="M141.79,64.17c44.6-4.07,25.73,34.83,90.12,68.34C164.36,125.89,169.74,79.64,141.79,64.17z"/>
	<path class="st0" d="M326.71,21.4c8.28,21.92,23.26,18.1,20.32,40.64c-4.62,35.33-31.23,58-64.07,68.38
		c17.11-19.62,23.64-40.61,28.97-64.79c3.54-16.1-1.66-24.98,9.83-37.26C323.89,26.09,325.81,23.77,326.71,21.4z"/>
	<path class="st0" d="M384.01,64.17c-44.6-4.07-25.73,34.83-90.12,68.34C361.44,125.89,356.05,79.64,384.01,64.17z"/>
	<path class="st1" d="M525.71,235.83l-47.14-56.37v54.96h-7.02V160.7l47.15,56.36V162.8h7.02V235.83z M447.07,208.64l-13.64-33.9
		l-13.95,33.9H447.07z M465.52,234.42h-7.89l-8.26-19.36h-32.03l-7.99,19.36h-7.82l31.9-75.23L465.52,234.42z M401.53,164.51
		l-25.58,38.32v31.59h-7.02v-31.59l-25.58-38.32l6.22-3.51l22.92,35.77L395.41,161L401.53,164.51z M340.34,201.32
		c0,9.7-2.57,17.66-7.72,23.88c-6.09,7.36-14.91,11.04-26.48,11.04c-10.3,0-18.96-3.18-25.98-9.53
		c-7.69-6.89-11.54-16.25-11.54-28.09c0-11.03,3.58-20.06,10.73-27.08c7.16-7.02,16.08-10.53,26.79-10.53
		c5.01,0,9.93,0.97,14.74,2.91c3.88,1.61,7.26,3.61,10.13,6.02c2.54,2.14,3.81,3.71,3.81,4.71l-5.72,4.21
		c0-1.47-2.21-3.51-6.62-6.12c-5.21-3.14-10.66-4.71-16.35-4.71c-8.56,0-15.68,2.88-21.37,8.63c-5.68,5.75-8.53,13.07-8.53,21.96
		c0,9.43,2.95,16.98,8.83,22.67c5.55,5.29,12.57,7.93,21.07,7.93c8.43,0,15.11-2.61,20.06-7.82c3.95-4.14,5.92-8.62,5.92-13.44
		h-45.34l1.8-6.62H340.34z M247.16,208.64l-13.64-33.9l-13.94,33.9H247.16z M265.61,234.42h-7.89l-8.26-19.36h-32.03l-7.99,19.36
		h-7.82l31.9-75.23L265.61,234.42z M201.62,164.51l-25.58,38.32v31.59h-7.02v-31.59l-25.58-38.32l6.22-3.51l22.92,35.77L195.5,161
		L201.62,164.51z M132.91,198.51c0-10.03-3.17-17.75-9.53-23.17c-5.75-4.88-13.27-7.32-22.57-7.32c-1.81,0-4.48,0.3-8.03,0.9v59.58
		c3.88,0.47,6.55,0.7,8.03,0.7c8.09,0,15.04-2.14,20.86-6.42C129.16,217.37,132.91,209.28,132.91,198.51z M140.43,198.41
		c0,12.84-4.25,22.6-12.74,29.29c-7.16,5.68-16.12,8.53-26.88,8.53c-5.75,0-10.77-0.61-15.05-1.81V162.7
		c4.61-1.14,9.63-1.7,15.05-1.7c11.23,0,20.5,3.14,27.79,9.43C136.49,177.25,140.43,186.58,140.43,198.41z M73.72,234.42H66.7V162.8
		h7.02V234.42z M60.68,163.81l-30.19,72.92L0,163.81l6.47-2.83l24.02,60.32L54.27,161L60.68,163.81z"/>
	<path class="st1" d="M484.43,292.34l-7.34-13.77v12.23c0,0.3,0.07,0.54,0.2,0.69c0.14,0.16,0.39,0.28,0.74,0.38v0.47h-5.86v-0.47
		c0.36-0.1,0.59-0.22,0.73-0.38c0.14-0.15,0.21-0.38,0.21-0.69v-16.87c0-0.29-0.07-0.52-0.21-0.67c-0.14-0.15-0.38-0.28-0.73-0.38
		v-0.47h7.68v0.47c-0.46,0.12-0.69,0.39-0.69,0.8c0,0.19,0.07,0.42,0.2,0.67l5.43,10.29l5.5-10.12c0.25-0.45,0.36-0.77,0.36-0.98
		c0-0.4-0.24-0.62-0.73-0.68v-0.47h7.53v0.47c-0.35,0.1-0.59,0.23-0.73,0.38c-0.13,0.16-0.2,0.38-0.2,0.67v16.87
		c0,0.3,0.07,0.54,0.2,0.69c0.14,0.16,0.38,0.28,0.73,0.38v0.47h-6.22v-0.47c0.34-0.09,0.58-0.21,0.72-0.38
		c0.15-0.16,0.21-0.39,0.21-0.69v-12.23L484.43,292.34z M461.2,284.53l-3.23-7.1l-3.29,7.1H461.2z M462.45,287.26h-9.06l-1.34,2.8
		c-0.19,0.39-0.28,0.69-0.28,0.92c0,0.43,0.32,0.73,0.98,0.89v0.47h-6.6v-0.47c0.39-0.08,0.69-0.21,0.89-0.41
		c0.2-0.2,0.44-0.57,0.7-1.14l7.33-15.3c0.23-0.49,0.35-0.88,0.35-1.17c0-0.45-0.28-0.77-0.85-0.96v-0.47h7.06v0.47
		c-0.57,0.16-0.86,0.45-0.86,0.86c0,0.28,0.09,0.6,0.28,0.96l7.59,15.36c0.32,0.65,0.6,1.1,0.85,1.34c0.24,0.24,0.57,0.39,0.98,0.47
		v0.47h-7.32v-0.47c0.64-0.11,0.96-0.41,0.96-0.91c0-0.2-0.09-0.5-0.29-0.9L462.45,287.26z M440.1,284v6.8
		c0,0.3,0.07,0.54,0.21,0.69c0.14,0.16,0.39,0.28,0.74,0.38v0.47h-6.26v-0.47c0.35-0.1,0.6-0.22,0.74-0.38
		c0.14-0.15,0.22-0.38,0.22-0.69V284l-6.44-9.06c-0.55-0.78-0.99-1.3-1.3-1.57c-0.32-0.27-0.7-0.43-1.13-0.49v-0.47h7.87v0.47
		c-0.65,0.11-0.98,0.41-0.98,0.91c0,0.17,0.2,0.55,0.6,1.15l3.59,5.35l3.7-5.35c0.4-0.57,0.6-0.96,0.6-1.16
		c0-0.23-0.09-0.42-0.27-0.58c-0.17-0.16-0.41-0.27-0.71-0.32v-0.47h7.71v0.47c-0.44,0.06-0.82,0.22-1.13,0.49
		c-0.31,0.27-0.75,0.79-1.3,1.57L440.1,284z M410.79,280.93h6.71c0.99,0,1.7-0.03,2.1-0.09c0.41-0.05,0.79-0.18,1.12-0.36
		c0.74-0.4,1.11-1.12,1.11-2.16c0-1.04-0.37-1.76-1.11-2.16c-0.35-0.2-0.72-0.32-1.11-0.38c-0.39-0.05-1.1-0.08-2.11-0.08h-6.71
		V280.93z M410.79,284.21v6.61c0,0.29,0.07,0.52,0.21,0.68c0.14,0.17,0.38,0.29,0.72,0.38v0.47h-6.23v-0.47
		c0.36-0.1,0.59-0.22,0.73-0.38c0.13-0.15,0.2-0.38,0.2-0.67v-16.87c0-0.3-0.07-0.53-0.2-0.69c-0.14-0.15-0.38-0.28-0.73-0.38v-0.47
		h12.47c1.52,0,2.72,0.09,3.61,0.27c0.89,0.18,1.67,0.48,2.33,0.92c0.77,0.51,1.34,1.2,1.73,2.06c0.36,0.84,0.54,1.73,0.54,2.68
		c0,3.25-1.8,5.16-5.41,5.71l3.87,5.5c0.68,0.96,1.18,1.58,1.5,1.86c0.32,0.27,0.7,0.43,1.16,0.46v0.47h-7.21v-0.47
		c0.5-0.08,0.75-0.25,0.75-0.52c0-0.18-0.23-0.6-0.69-1.27l-4.04-5.87H410.79z M394.54,284.53l-3.23-7.1l-3.29,7.1H394.54z
		 M395.79,287.26h-9.05l-1.34,2.8c-0.19,0.39-0.28,0.69-0.28,0.92c0,0.43,0.32,0.73,0.98,0.89v0.47h-6.59v-0.47
		c0.39-0.08,0.69-0.21,0.89-0.41c0.2-0.2,0.44-0.57,0.7-1.14l7.33-15.3c0.23-0.49,0.35-0.88,0.35-1.17c0-0.45-0.28-0.77-0.85-0.96
		v-0.47h7.07v0.47c-0.57,0.16-0.86,0.45-0.86,0.86c0,0.28,0.09,0.6,0.28,0.96l7.59,15.36c0.32,0.65,0.61,1.1,0.85,1.34
		c0.25,0.24,0.57,0.39,0.98,0.47v0.47h-7.32v-0.47c0.64-0.11,0.96-0.41,0.96-0.91c0-0.2-0.09-0.5-0.29-0.9L395.79,287.26z
		 M364.59,278.31l-4.55,11.5c-0.26,0.59-0.39,0.95-0.39,1.11c0,0.44,0.36,0.76,1.08,0.95v0.47h-6.41v-0.47
		c0.65-0.12,0.98-0.46,0.98-0.99c0-0.14-0.13-0.58-0.41-1.3l-5.71-14.7c-0.28-0.73-0.54-1.22-0.77-1.48c-0.23-0.26-0.56-0.43-1-0.52
		v-0.47h6.91v0.47c-0.61,0.14-0.92,0.43-0.92,0.86c0,0.22,0.07,0.54,0.23,0.96l3.95,10.54l4.26-10.6c0.18-0.45,0.28-0.76,0.28-0.9
		c0-0.45-0.33-0.74-0.98-0.86v-0.47h7.24v0.47c-0.66,0.18-0.99,0.5-0.99,0.95c0,0.16,0.08,0.45,0.25,0.88l4.06,10.54l3.92-10.37
		c0.21-0.52,0.31-0.9,0.31-1.15c0-0.43-0.36-0.71-1.05-0.85v-0.47h6.85v0.47c-0.49,0.14-0.82,0.31-1.01,0.52
		c-0.18,0.21-0.43,0.71-0.73,1.48l-5.71,14.7c-0.27,0.7-0.41,1.17-0.41,1.4c0,0.48,0.34,0.78,1.04,0.89v0.47h-6.5v-0.47
		c0.68-0.11,1.02-0.43,1.02-0.98c0-0.18-0.15-0.62-0.45-1.32L364.59,278.31z M340.62,283.64h-11.48v7.18c0,0.29,0.07,0.52,0.21,0.68
		c0.14,0.17,0.38,0.29,0.72,0.38v0.47h-6.22v-0.47c0.36-0.1,0.59-0.22,0.73-0.38c0.13-0.15,0.2-0.38,0.2-0.67v-16.89
		c0-0.29-0.07-0.52-0.2-0.67c-0.14-0.15-0.38-0.28-0.73-0.38v-0.47h6.22v0.47c-0.35,0.09-0.59,0.21-0.73,0.38
		c-0.14,0.16-0.21,0.38-0.21,0.68v6.43h11.48v-6.43c0-0.29-0.07-0.52-0.2-0.68c-0.14-0.16-0.38-0.29-0.73-0.38v-0.47h6.22v0.47
		c-0.35,0.1-0.59,0.23-0.73,0.38c-0.13,0.16-0.2,0.38-0.2,0.67v16.89c0,0.29,0.07,0.52,0.2,0.67c0.14,0.16,0.38,0.28,0.73,0.38v0.47
		h-6.22v-0.47c0.34-0.09,0.58-0.21,0.72-0.38c0.14-0.16,0.21-0.38,0.21-0.68V283.64z M320.86,274.09l-2.38,4.69l-0.41-0.23
		c0.01-0.1,0.02-0.18,0.02-0.23c0-0.33-0.29-0.69-0.85-1.07c-1.73-1.21-3.77-1.81-6.11-1.81c-1.03,0-1.94,0.12-2.73,0.38
		c-0.57,0.19-1.04,0.49-1.39,0.88c-0.36,0.39-0.54,0.81-0.54,1.27c0,0.75,0.45,1.26,1.36,1.53c0.47,0.13,1.47,0.29,3.01,0.44
		l2.29,0.23c1.36,0.14,2.46,0.34,3.3,0.6c0.84,0.25,1.59,0.61,2.23,1.07c0.66,0.47,1.19,1.1,1.57,1.88
		c0.38,0.78,0.58,1.61,0.58,2.49c0,1.41-0.45,2.65-1.36,3.74c-0.82,1-2.09,1.73-3.81,2.21c-1.29,0.36-2.66,0.54-4.13,0.54
		c-2.64,0-5.23-0.63-7.8-1.9c-0.54-0.25-0.87-0.38-0.98-0.38c-0.12,0-0.32,0.11-0.6,0.32l-0.43-0.22l2.16-4.89l0.43,0.2
		c0,0.09,0,0.15,0,0.19c0,0.44,0.21,0.84,0.63,1.21c0.63,0.57,1.61,1.05,2.93,1.46c1.32,0.41,2.57,0.61,3.76,0.61
		c1.29,0,2.4-0.22,3.31-0.66c0.51-0.25,0.91-0.57,1.21-0.97c0.3-0.4,0.45-0.82,0.45-1.26c0-0.66-0.36-1.13-1.07-1.41
		c-0.49-0.2-1.5-0.38-3-0.54l-2.25-0.23c-1.51-0.15-2.58-0.3-3.2-0.44c-0.62-0.14-1.25-0.37-1.87-0.68
		c-0.88-0.43-1.58-1.09-2.09-1.97c-0.46-0.79-0.69-1.69-0.69-2.71c0-1.68,0.58-3.07,1.74-4.18c1.52-1.45,3.79-2.17,6.83-2.17
		c1.27,0,2.46,0.13,3.56,0.39c1.1,0.25,2.47,0.73,4.12,1.42c0.56,0.23,0.91,0.34,1.04,0.34c0.2,0,0.44-0.11,0.71-0.34L320.86,274.09
		z M293.46,290.8v-16.87c0-0.29-0.07-0.52-0.2-0.67c-0.14-0.15-0.38-0.28-0.73-0.38v-0.47h6.22v0.47c-0.35,0.09-0.59,0.21-0.73,0.38
		c-0.13,0.16-0.2,0.38-0.2,0.68v16.87c0,0.3,0.07,0.54,0.21,0.69c0.14,0.17,0.38,0.29,0.72,0.38v0.47h-6.22v-0.47
		c0.36-0.1,0.59-0.22,0.73-0.38C293.39,291.34,293.46,291.11,293.46,290.8z M281.56,284.53l-3.23-7.1l-3.28,7.1H281.56z
		 M282.81,287.26h-9.06l-1.34,2.8c-0.19,0.39-0.28,0.69-0.28,0.92c0,0.43,0.32,0.73,0.98,0.89v0.47h-6.59v-0.47
		c0.39-0.08,0.69-0.21,0.89-0.41c0.2-0.2,0.44-0.57,0.7-1.14l7.33-15.3c0.23-0.49,0.35-0.88,0.35-1.17c0-0.45-0.28-0.77-0.85-0.96
		v-0.47H282v0.47c-0.57,0.16-0.86,0.45-0.86,0.86c0,0.28,0.09,0.6,0.28,0.96l7.59,15.36c0.32,0.65,0.61,1.1,0.85,1.34
		c0.24,0.24,0.57,0.39,0.98,0.47v0.47h-7.32v-0.47c0.64-0.11,0.96-0.41,0.96-0.91c0-0.2-0.09-0.5-0.29-0.9L282.81,287.26z
		 M243.12,292.34l-7.34-13.77v12.23c0,0.3,0.07,0.54,0.2,0.69c0.14,0.16,0.38,0.28,0.73,0.38v0.47h-5.86v-0.47
		c0.35-0.1,0.59-0.22,0.73-0.38c0.14-0.15,0.21-0.38,0.21-0.69v-16.87c0-0.29-0.07-0.52-0.21-0.67c-0.14-0.15-0.38-0.28-0.73-0.38
		v-0.47h7.68v0.47c-0.46,0.12-0.68,0.39-0.68,0.8c0,0.19,0.07,0.42,0.2,0.67l5.43,10.29l5.5-10.12c0.25-0.45,0.36-0.77,0.36-0.98
		c0-0.4-0.24-0.62-0.73-0.68v-0.47h7.53v0.47c-0.35,0.1-0.59,0.23-0.73,0.38c-0.13,0.16-0.2,0.38-0.2,0.67v16.87
		c0,0.3,0.07,0.54,0.2,0.69c0.14,0.16,0.38,0.28,0.73,0.38v0.47h-6.22v-0.47c0.34-0.09,0.59-0.21,0.72-0.38
		c0.14-0.16,0.21-0.39,0.21-0.69v-12.23L243.12,292.34z M219.89,284.53l-3.23-7.1l-3.28,7.1H219.89z M221.14,287.26h-9.06l-1.34,2.8
		c-0.19,0.39-0.28,0.69-0.28,0.92c0,0.43,0.32,0.73,0.98,0.89v0.47h-6.6v-0.47c0.39-0.08,0.69-0.21,0.89-0.41
		c0.2-0.2,0.44-0.57,0.7-1.14l7.33-15.3c0.23-0.49,0.35-0.88,0.35-1.17c0-0.45-0.28-0.77-0.85-0.96v-0.47h7.07v0.47
		c-0.57,0.16-0.86,0.45-0.86,0.86c0,0.28,0.1,0.6,0.28,0.96l7.59,15.36c0.32,0.65,0.6,1.1,0.84,1.34c0.25,0.24,0.57,0.39,0.98,0.47
		v0.47h-7.32v-0.47c0.64-0.11,0.96-0.41,0.96-0.91c0-0.2-0.1-0.5-0.3-0.9L221.14,287.26z M187.65,280.93h6.71
		c0.99,0,1.7-0.03,2.11-0.09c0.41-0.05,0.78-0.18,1.12-0.36c0.74-0.4,1.11-1.12,1.11-2.16c0-1.04-0.37-1.76-1.11-2.16
		c-0.35-0.2-0.72-0.32-1.12-0.38c-0.39-0.05-1.1-0.08-2.11-0.08h-6.71V280.93z M187.65,284.21v6.61c0,0.29,0.07,0.52,0.21,0.68
		c0.14,0.17,0.38,0.29,0.72,0.38v0.47h-6.22v-0.47c0.35-0.1,0.59-0.22,0.73-0.38c0.14-0.15,0.21-0.38,0.21-0.67v-16.87
		c0-0.3-0.07-0.53-0.21-0.69c-0.14-0.15-0.38-0.28-0.73-0.38v-0.47h12.47c1.52,0,2.73,0.09,3.61,0.27c0.89,0.18,1.67,0.48,2.33,0.92
		c0.76,0.51,1.34,1.2,1.72,2.06c0.36,0.84,0.54,1.73,0.54,2.68c0,3.25-1.8,5.16-5.42,5.71l3.87,5.5c0.68,0.96,1.18,1.58,1.5,1.86
		c0.32,0.27,0.7,0.43,1.16,0.46v0.47h-7.21v-0.47c0.5-0.08,0.75-0.25,0.75-0.52c0-0.18-0.23-0.6-0.69-1.27l-4.04-5.87H187.65z
		 M171.4,284.53l-3.24-7.1l-3.29,7.1H171.4z M172.65,287.26h-9.06l-1.34,2.8c-0.19,0.39-0.28,0.69-0.28,0.92
		c0,0.43,0.32,0.73,0.98,0.89v0.47h-6.6v-0.47c0.39-0.08,0.69-0.21,0.89-0.41c0.21-0.2,0.44-0.57,0.7-1.14l7.33-15.3
		c0.23-0.49,0.35-0.88,0.35-1.17c0-0.45-0.28-0.77-0.84-0.96v-0.47h7.06v0.47c-0.57,0.16-0.86,0.45-0.86,0.86
		c0,0.28,0.1,0.6,0.28,0.96l7.59,15.36c0.32,0.65,0.6,1.1,0.84,1.34c0.25,0.24,0.57,0.39,0.98,0.47v0.47h-7.32v-0.47
		c0.64-0.11,0.96-0.41,0.96-0.91c0-0.2-0.1-0.5-0.3-0.9L172.65,287.26z M142.56,280.97h6.64c1.33,0,2.25-0.14,2.79-0.42
		c0.34-0.18,0.61-0.48,0.82-0.88c0.21-0.4,0.31-0.85,0.31-1.34c0-0.48-0.1-0.92-0.31-1.32c-0.21-0.4-0.49-0.7-0.82-0.88
		c-0.53-0.28-1.46-0.42-2.79-0.42h-6.64V280.97z M142.56,284.25v6.57c0,0.29,0.07,0.52,0.22,0.68c0.14,0.17,0.38,0.29,0.72,0.38
		v0.47h-6.22v-0.47c0.35-0.1,0.59-0.22,0.73-0.38c0.14-0.15,0.21-0.38,0.21-0.67v-16.87c0-0.3-0.07-0.53-0.21-0.69
		c-0.14-0.15-0.38-0.28-0.73-0.38v-0.47h12.44c1.45,0,2.6,0.1,3.45,0.3c0.84,0.19,1.6,0.53,2.25,1c0.67,0.5,1.2,1.15,1.58,1.95
		c0.38,0.84,0.57,1.73,0.57,2.66c0,1.34-0.36,2.52-1.08,3.54c-0.62,0.86-1.45,1.48-2.47,1.84c-1.03,0.36-2.46,0.55-4.3,0.55H142.56z
		 M118.83,284.53l-3.23-7.1l-3.28,7.1H118.83z M120.09,287.26h-9.06l-1.34,2.8c-0.19,0.39-0.28,0.69-0.28,0.92
		c0,0.43,0.33,0.73,0.99,0.89v0.47h-6.6v-0.47c0.39-0.08,0.69-0.21,0.89-0.41c0.21-0.2,0.44-0.57,0.7-1.14l7.33-15.3
		c0.23-0.49,0.35-0.88,0.35-1.17c0-0.45-0.28-0.77-0.85-0.96v-0.47h7.07v0.47c-0.57,0.16-0.86,0.45-0.86,0.86
		c0,0.28,0.1,0.6,0.28,0.96l7.59,15.36c0.32,0.65,0.6,1.1,0.84,1.34c0.25,0.24,0.57,0.39,0.98,0.47v0.47h-7.32v-0.47
		c0.64-0.11,0.96-0.41,0.96-0.91c0-0.2-0.1-0.5-0.3-0.9L120.09,287.26z M97.74,284v6.8c0,0.3,0.07,0.54,0.21,0.69
		c0.15,0.16,0.39,0.28,0.74,0.38v0.47h-6.26v-0.47c0.35-0.1,0.6-0.22,0.74-0.38c0.14-0.15,0.22-0.38,0.22-0.69V284l-6.44-9.06
		c-0.55-0.78-0.99-1.3-1.31-1.57c-0.31-0.27-0.69-0.43-1.13-0.49v-0.47h7.87v0.47c-0.65,0.11-0.98,0.41-0.98,0.91
		c0,0.17,0.2,0.55,0.6,1.15l3.59,5.35l3.7-5.35c0.4-0.57,0.6-0.96,0.6-1.16c0-0.23-0.09-0.42-0.27-0.58
		c-0.17-0.16-0.41-0.27-0.72-0.32v-0.47h7.71v0.47c-0.44,0.06-0.82,0.22-1.13,0.49c-0.31,0.27-0.75,0.79-1.3,1.57L97.74,284z
		 M68.24,289.05h5.46c1.74,0,3.05-0.24,3.93-0.71c1.88-1.02,2.82-3.01,2.82-5.97c0-2.14-0.51-3.78-1.52-4.92
		c-0.57-0.63-1.24-1.09-2.04-1.35c-0.8-0.27-1.86-0.4-3.18-0.4h-5.46V289.05z M63.89,290.8v-16.86c0-0.3-0.07-0.53-0.21-0.69
		c-0.14-0.15-0.38-0.28-0.73-0.38v-0.47h11.11c2.44,0,4.3,0.28,5.6,0.83c1.87,0.81,3.25,2.14,4.15,4c0.71,1.46,1.07,3.16,1.07,5.12
		c0,3.43-1.05,6.05-3.17,7.85c-0.88,0.76-1.92,1.3-3.11,1.63c-1.19,0.32-2.7,0.49-4.54,0.49H62.95v-0.47
		c0.36-0.1,0.59-0.22,0.73-0.38C63.82,291.34,63.89,291.11,63.89,290.8z M54.09,290.8v-16.87c0-0.29-0.07-0.52-0.2-0.67
		c-0.14-0.15-0.38-0.28-0.74-0.38v-0.47h6.22v0.47c-0.35,0.09-0.59,0.21-0.73,0.38c-0.13,0.16-0.2,0.38-0.2,0.68v16.87
		c0,0.3,0.07,0.54,0.21,0.69c0.14,0.17,0.38,0.29,0.72,0.38v0.47h-6.22v-0.47c0.36-0.1,0.59-0.22,0.74-0.38
		C54.02,291.34,54.09,291.11,54.09,290.8z M39.98,286.55l5.28-11.7c0.22-0.49,0.33-0.88,0.33-1.15c0-0.42-0.32-0.7-0.96-0.82v-0.47
		h6.82v0.47c-0.43,0.06-0.72,0.18-0.89,0.36c-0.16,0.19-0.45,0.72-0.86,1.61l-6.9,14.9c-0.3,0.63-0.44,1.05-0.44,1.24
		c0,0.5,0.31,0.79,0.92,0.88v0.47h-6.86v-0.47c0.61-0.09,0.92-0.38,0.92-0.89c0-0.18-0.14-0.59-0.44-1.23l-6.9-14.9
		c-0.41-0.88-0.7-1.42-0.86-1.61c-0.16-0.18-0.46-0.3-0.89-0.36v-0.47h7.08v0.47c-0.64,0.12-0.96,0.4-0.96,0.82
		c0,0.27,0.11,0.66,0.34,1.15L39.98,286.55z"/>
	<polygon class="st1" points="15.18,260.45 19.36,265.68 19.36,297.52 15.18,292.29 	"/>
	<polygon class="st1" points="3.2,260.45 7.39,265.68 7.39,297.52 3.2,292.29 	"/>
	<polygon class="st1" points="518.32,260.45 522.5,265.68 522.5,297.52 518.32,292.29 	"/>
	<polygon class="st1" points="506.34,260.45 510.53,265.68 510.53,297.52 506.34,292.29 	"/>
</g>
</svg>
